<?xml version="1.0" encoding="utf-8"?>
<!-- Generator: Adobe Illustrator 21.1.0, SVG Export Plug-In . SVG Version: 6.00 Build 0)  -->
<svg version="1.1" id="Layer_1" xmlns="http://www.w3.org/2000/svg" xmlns:xlink="http://www.w3.org/1999/xlink" x="0px" y="0px"
	 viewBox="0 0 300 300" style="enable-background:new 0 0 300 300;" xml:space="preserve">
<style type="text/css">
	.st0{fill:url(#SVGID_1_);}
	.st1{fill:url(#SVGID_2_);}
	.st2{fill:url(#SVGID_3_);}
	.st3{fill:url(#SVGID_4_);}
	.st4{fill:url(#SVGID_5_);}
	.st5{fill:url(#SVGID_6_);}
	.st6{fill:url(#SVGID_7_);}
	.st7{fill:url(#SVGID_8_);}
	.st8{fill:url(#SVGID_9_);}
	.st9{fill:url(#SVGID_10_);}
	.st10{fill:url(#SVGID_11_);}
</style>
<g>
	<linearGradient id="SVGID_1_" gradientUnits="userSpaceOnUse" x1="142.9458" y1="-90.158" x2="142.9458" y2="382.1141">
		<stop  offset="0" style="stop-color:#EB2426"/>
		<stop  offset="1" style="stop-color:#932426"/>
	</linearGradient>
	<path class="st0" d="M259.7,299.1H26.2c-10.6,0-19.2-8.6-19.2-19.2V139.6c0-10.6,8.6-19.2,19.2-19.2h233.5
		c10.6,0,19.2,8.6,19.2,19.2v42.1c0,2.5-2,4.4-4.4,4.4c-2.5,0-4.4-2-4.4-4.4v-42.1c0-5.7-4.6-10.3-10.3-10.3H26.2
		c-5.7,0-10.3,4.6-10.3,10.3v140.2c0,5.7,4.6,10.3,10.3,10.3h233.5c5.7,0,10.3-4.6,10.3-10.3V239c0-2.5,2-4.4,4.4-4.4
		c2.5,0,4.4,2,4.4,4.4v40.9C278.9,290.4,270.3,299.1,259.7,299.1z"/>
	<linearGradient id="SVGID_2_" gradientUnits="userSpaceOnUse" x1="256.889" y1="-90.158" x2="256.889" y2="382.1141">
		<stop  offset="0" style="stop-color:#EB2426"/>
		<stop  offset="1" style="stop-color:#932426"/>
	</linearGradient>
	<path class="st1" d="M264.3,129.3c-2.5,0-4.4-2-4.4-4.4V122c0-5.7-4.6-10.3-10.3-10.3c-2.5,0-4.4-2-4.4-4.4c0-2.5,2-4.4,4.4-4.4
		c10.6,0,19.2,8.6,19.2,19.2v2.8C268.7,127.3,266.7,129.3,264.3,129.3z"/>
	<linearGradient id="SVGID_3_" gradientUnits="userSpaceOnUse" x1="57.5607" y1="-90.158" x2="57.5607" y2="382.1141">
		<stop  offset="0" style="stop-color:#EB2426"/>
		<stop  offset="1" style="stop-color:#932426"/>
	</linearGradient>
	<path class="st2" d="M19.8,129.3c-2.5,0-4.4-2-4.4-4.4V122c0-10.6,8.6-19.2,19.2-19.2h60.8c2.5,0,4.4,2,4.4,4.4
		c0,2.5-2,4.4-4.4,4.4H34.5c-5.7,0-10.3,4.6-10.3,10.3v2.8C24.2,127.3,22.2,129.3,19.8,129.3z"/>
	<linearGradient id="SVGID_4_" gradientUnits="userSpaceOnUse" x1="243.0401" y1="-90.158" x2="243.0401" y2="382.1141">
		<stop  offset="0" style="stop-color:#EB2426"/>
		<stop  offset="1" style="stop-color:#932426"/>
	</linearGradient>
	<path class="st3" d="M287.6,243.4h-60.4c-18.2,0-33.1-14.8-33.1-33.1c0-18.2,14.8-33.1,33.1-33.1h60.4c2.5,0,4.4,2,4.4,4.4V239
		C292,241.5,290,243.4,287.6,243.4z M227.2,186.2c-13.3,0-24.2,10.9-24.2,24.2c0,13.3,10.9,24.2,24.2,24.2h56v-48.4H227.2z"/>
	<linearGradient id="SVGID_5_" gradientUnits="userSpaceOnUse" x1="142.2237" y1="-90.158" x2="142.2237" y2="382.1141">
		<stop  offset="0" style="stop-color:#EB2426"/>
		<stop  offset="1" style="stop-color:#932426"/>
	</linearGradient>
	<path class="st4" d="M273,157.7H11.4c-2.5,0-4.4-2-4.4-4.4s2-4.4,4.4-4.4H273c2.5,0,4.4,2,4.4,4.4S275.5,157.7,273,157.7z"/>
	<linearGradient id="SVGID_6_" gradientUnits="userSpaceOnUse" x1="29.9369" y1="-90.158" x2="29.9369" y2="382.1141">
		<stop  offset="0" style="stop-color:#EB2426"/>
		<stop  offset="1" style="stop-color:#932426"/>
	</linearGradient>
	<path class="st5" d="M48.4,271.9h-37c-2.5,0-4.4-2-4.4-4.4s2-4.4,4.4-4.4h37c2.5,0,4.4,2,4.4,4.4S50.9,271.9,48.4,271.9z"/>
	<linearGradient id="SVGID_7_" gradientUnits="userSpaceOnUse" x1="175.9563" y1="-90.158" x2="175.9563" y2="382.1141">
		<stop  offset="0" style="stop-color:#EB2426"/>
		<stop  offset="1" style="stop-color:#932426"/>
	</linearGradient>
	<path class="st6" d="M273,271.9H78.9c-2.5,0-4.4-2-4.4-4.4s2-4.4,4.4-4.4H273c2.5,0,4.4,2,4.4,4.4S275.5,271.9,273,271.9z"/>
	<linearGradient id="SVGID_8_" gradientUnits="userSpaceOnUse" x1="230.4217" y1="-90.158" x2="230.4217" y2="382.1141">
		<stop  offset="0" style="stop-color:#EB2426"/>
		<stop  offset="1" style="stop-color:#932426"/>
	</linearGradient>
	<path class="st7" d="M230.4,228.4c-10.3,0-18.7-8.4-18.7-18.7s8.4-18.7,18.7-18.7c10.3,0,18.7,8.4,18.7,18.7
		S240.7,228.4,230.4,228.4z M230.4,199.9c-5.4,0-9.8,4.4-9.8,9.8s4.4,9.8,9.8,9.8c5.4,0,9.8-4.4,9.8-9.8S235.8,199.9,230.4,199.9z"
		/>
	<linearGradient id="SVGID_9_" gradientUnits="userSpaceOnUse" x1="174.9014" y1="-90.158" x2="174.9014" y2="382.1141">
		<stop  offset="0" style="stop-color:#EB2426"/>
		<stop  offset="1" style="stop-color:#932426"/>
	</linearGradient>
	<path class="st8" d="M231.9,128.5c-0.9,0-1.8-0.3-2.5-0.8c-2-1.4-2.5-4.2-1.1-6.2l31.6-45.3l-92.4-64.5l-80,114.6
		c-1.4,2-4.2,2.5-6.2,1.1c-2-1.4-2.5-4.2-1.1-6.2L162.7,3c1.4-2,4.2-2.5,6.2-1.1l99.7,69.5c1,0.7,1.6,1.7,1.8,2.9
		c0.2,1.2-0.1,2.4-0.7,3.3l-34.1,48.9C234.7,127.8,233.3,128.5,231.9,128.5z"/>
	<linearGradient id="SVGID_10_" gradientUnits="userSpaceOnUse" x1="168.9241" y1="-90.158" x2="168.9241" y2="382.1141">
		<stop  offset="0" style="stop-color:#EB2426"/>
		<stop  offset="1" style="stop-color:#932426"/>
	</linearGradient>
	<path class="st9" d="M104.8,129.3c-0.9,0-1.8-0.3-2.5-0.8c-2-1.4-2.5-4.2-1.1-6.2l56.5-80.9c0.9-1.3,2.5-2,4.1-1.9
		c5.4,0.5,10.8-0.5,15.6-3l3.5-1.8c1.5-0.7,3.2-0.6,4.6,0.3l46.4,32.4c1.3,0.9,2,2.3,1.9,3.9l0,1c-0.3,5.8,0.9,11.7,3.5,17
		c0.7,1.5,0.6,3.2-0.3,4.5l-23.5,33.6c-1.4,2-4.2,2.5-6.2,1.1c-2-1.4-2.5-4.2-1.1-6.2l22-31.6c-2.3-5.5-3.4-11.4-3.3-17.4
		l-42.3-29.5l-1.2,0.6c-5.5,2.8-11.6,4.2-17.8,4l-55,78.9C107.5,128.6,106.2,129.3,104.8,129.3z"/>
	<linearGradient id="SVGID_11_" gradientUnits="userSpaceOnUse" x1="164.0845" y1="-90.158" x2="164.0845" y2="382.1141">
		<stop  offset="0" style="stop-color:#EB2426"/>
		<stop  offset="1" style="stop-color:#932426"/>
	</linearGradient>
	<path class="st10" d="M194.9,125.1c-2.5,0-4.4-2-4.4-4.4c0-14.5-11.8-26.4-26.4-26.4c-14.5,0-26.4,11.8-26.4,26.4
		c0,2.5-2,4.4-4.4,4.4s-4.4-2-4.4-4.4c0-19.4,15.8-35.3,35.3-35.3s35.3,15.8,35.3,35.3C199.4,123.1,197.4,125.1,194.9,125.1z"/>
</g>
</svg>
