<?xml version="1.0" encoding="utf-8"?>
<!-- Generator: Adobe Illustrator 21.1.0, SVG Export Plug-In . SVG Version: 6.00 Build 0)  -->
<svg version="1.1" id="Layer_1" xmlns="http://www.w3.org/2000/svg" xmlns:xlink="http://www.w3.org/1999/xlink" x="0px" y="0px"
	 viewBox="0 0 300 300" style="enable-background:new 0 0 300 300;" xml:space="preserve">
<style type="text/css">
	.st0{fill:url(#SVGID_1_);}
	.st1{fill:url(#SVGID_2_);}
	.st2{fill:url(#SVGID_3_);}
	.st3{fill:url(#SVGID_4_);}
	.st4{fill:url(#SVGID_5_);}
	.st5{fill:url(#SVGID_6_);}
	.st6{fill:url(#SVGID_7_);}
	.st7{fill:url(#SVGID_8_);}
	.st8{fill:url(#SVGID_9_);}
	.st9{fill:url(#SVGID_10_);}
	.st10{fill:url(#SVGID_11_);}
	.st11{fill:url(#SVGID_12_);}
	.st12{fill:url(#SVGID_13_);}
	.st13{fill:url(#SVGID_14_);}
	.st14{fill:url(#SVGID_15_);}
	.st15{fill:url(#SVGID_16_);}
</style>
<g>
	<linearGradient id="SVGID_1_" gradientUnits="userSpaceOnUse" x1="5.3287" y1="2.7957" x2="5.3287" y2="207.0195">
		<stop  offset="0" style="stop-color:#EB2426"/>
		<stop  offset="1" style="stop-color:#932426"/>
	</linearGradient>
	<path class="st0" d="M9.8,123V46.8c0-2.4-1.7-4.5-4-4.7c-2.6-0.2-4.8,1.8-4.8,4.4V123c0,2.4,2,4.4,4.4,4.4h0
		C7.8,127.5,9.8,125.5,9.8,123z"/>
	<linearGradient id="SVGID_2_" gradientUnits="userSpaceOnUse" x1="112.3851" y1="-448.2807" x2="112.3851" y2="445.5719">
		<stop  offset="0" style="stop-color:#EB2426"/>
		<stop  offset="1" style="stop-color:#932426"/>
	</linearGradient>
	<path class="st1" d="M219,255.4c-2.3,0.2-4,2.3-4,4.7v22.1c0,4.9-4,8.9-8.9,8.9H18.7c-4.9,0-8.9-4-8.9-8.9V150.4
		c0-2.4-2-4.4-4.4-4.4h0c-2.4,0-4.4,2-4.4,4.4v131.8c0,9.8,8,17.8,17.8,17.8h187.4c9.8,0,17.8-8,17.8-17.8v-22.4
		C223.9,257.2,221.6,255.1,219,255.4z"/>
	<linearGradient id="SVGID_3_" gradientUnits="userSpaceOnUse" x1="133.4645" y1="-34.8246" x2="133.4645" y2="365.1374">
		<stop  offset="0" style="stop-color:#EB2426"/>
		<stop  offset="1" style="stop-color:#932426"/>
	</linearGradient>
	<path class="st2" d="M219.4,69.8c-2.4,0-4.4-2-4.4-4.4V17.9c0-4.9-4-8.9-8.9-8.9H47.5c-2.4,0-4.4-2-4.4-4.4s2-4.4,4.4-4.4h158.6
		c9.8,0,17.8,8,17.8,17.8v47.5C223.9,67.8,221.9,69.8,219.4,69.8z"/>
	<linearGradient id="SVGID_4_" gradientUnits="userSpaceOnUse" x1="25.7218" y1="-34.8246" x2="25.7218" y2="365.1374">
		<stop  offset="0" style="stop-color:#EB2426"/>
		<stop  offset="1" style="stop-color:#932426"/>
	</linearGradient>
	<path class="st3" d="M46.1,50.7H5.3c-1.8,0-3.4-1.1-4.1-2.7c-0.7-1.6-0.3-3.5,0.9-4.8L43,1.8c1.3-1.3,3.2-1.7,4.8-1
		c1.7,0.7,2.8,2.3,2.8,4.1v41.4C50.5,48.7,48.6,50.7,46.1,50.7z M15.9,41.8h25.7V15.7L15.9,41.8z"/>
	<linearGradient id="SVGID_5_" gradientUnits="userSpaceOnUse" x1="219.4414" y1="-34.8246" x2="219.4414" y2="365.1374">
		<stop  offset="0" style="stop-color:#EB2426"/>
		<stop  offset="1" style="stop-color:#932426"/>
	</linearGradient>
	<path class="st4" d="M219.4,242.6c-43.9,0-79.7-35.7-79.7-79.7v-4.4H215V83.2h4.4c43.9,0,79.7,35.7,79.7,79.7
		S263.4,242.6,219.4,242.6z M148.8,167.3c2.3,37,33.1,66.4,70.7,66.4c39,0,70.8-31.8,70.8-70.8c0-37.5-29.4-68.4-66.4-70.7v75.1
		H148.8z"/>
	<linearGradient id="SVGID_6_" gradientUnits="userSpaceOnUse" x1="155.9735" y1="-34.8246" x2="155.9735" y2="365.1374">
		<stop  offset="0" style="stop-color:#EB2426"/>
		<stop  offset="1" style="stop-color:#932426"/>
	</linearGradient>
	<path class="st5" d="M193.6,141.5h-75.2c-2.4,0-4.4-2-4.4-4.4c0-43.9,35.7-79.7,79.7-79.7c2.4,0,4.4,2,4.4,4.4V137
		C198,139.5,196,141.5,193.6,141.5z M122.9,132.6h66.2V66.4C153.6,68.6,125.1,97.1,122.9,132.6z"/>
	<linearGradient id="SVGID_7_" gradientUnits="userSpaceOnUse" x1="236.4824" y1="-34.8246" x2="236.4824" y2="365.1374">
		<stop  offset="0" style="stop-color:#EB2426"/>
		<stop  offset="1" style="stop-color:#932426"/>
	</linearGradient>
	<path class="st6" d="M253.5,202.2c-1.2,0-2.3-0.4-3.2-1.3L216.3,166c-1.7-1.8-1.7-4.6,0.1-6.3c1.7-1.7,4.6-1.7,6.3,0.1l34.1,34.9
		c1.7,1.8,1.7,4.6-0.1,6.3C255.8,201.8,254.6,202.2,253.5,202.2z"/>
	<linearGradient id="SVGID_8_" gradientUnits="userSpaceOnUse" x1="64.5751" y1="-34.8246" x2="64.5751" y2="365.1374">
		<stop  offset="0" style="stop-color:#EB2426"/>
		<stop  offset="1" style="stop-color:#932426"/>
	</linearGradient>
	<path class="st7" d="M80.4,110.6H48.8c-12.9,0-23.3-10.5-23.3-23.3s10.5-23.3,23.3-23.3h31.6c12.9,0,23.3,10.5,23.3,23.3
		S93.3,110.6,80.4,110.6z M48.8,72.8c-8,0-14.5,6.5-14.5,14.5s6.5,14.5,14.5,14.5h31.6c8,0,14.5-6.5,14.5-14.5s-6.5-14.5-14.5-14.5
		H48.8z"/>
	<linearGradient id="SVGID_9_" gradientUnits="userSpaceOnUse" x1="107.2695" y1="-34.8246" x2="107.2695" y2="365.1374">
		<stop  offset="0" style="stop-color:#EB2426"/>
		<stop  offset="1" style="stop-color:#932426"/>
	</linearGradient>
	<path class="st8" d="M115.2,91.7h-16c-2.4,0-4.4-2-4.4-4.4c0-2.4,2-4.4,4.4-4.4h16c2.4,0,4.4,2,4.4,4.4
		C119.7,89.7,117.7,91.7,115.2,91.7z"/>
	<linearGradient id="SVGID_10_" gradientUnits="userSpaceOnUse" x1="64.7228" y1="-34.8246" x2="64.7228" y2="365.1374">
		<stop  offset="0" style="stop-color:#EB2426"/>
		<stop  offset="1" style="stop-color:#932426"/>
	</linearGradient>
	<path class="st9" d="M75.4,91.7H54.1c-2.4,0-4.4-2-4.4-4.4c0-2.4,2-4.4,4.4-4.4h21.3c2.4,0,4.4,2,4.4,4.4
		C79.8,89.7,77.8,91.7,75.4,91.7z"/>
	<linearGradient id="SVGID_11_" gradientUnits="userSpaceOnUse" x1="64.5751" y1="-34.8246" x2="64.5751" y2="365.1374">
		<stop  offset="0" style="stop-color:#EB2426"/>
		<stop  offset="1" style="stop-color:#932426"/>
	</linearGradient>
	<path class="st10" d="M80.4,192.6H48.8c-12.9,0-23.3-10.5-23.3-23.3s10.5-23.3,23.3-23.3h31.6c12.9,0,23.3,10.5,23.3,23.3
		S93.3,192.6,80.4,192.6z M48.8,154.8c-8,0-14.5,6.5-14.5,14.5s6.5,14.5,14.5,14.5h31.6c8,0,14.5-6.5,14.5-14.5s-6.5-14.5-14.5-14.5
		H48.8z"/>
	<linearGradient id="SVGID_12_" gradientUnits="userSpaceOnUse" x1="107.2695" y1="-34.8246" x2="107.2695" y2="365.1374">
		<stop  offset="0" style="stop-color:#EB2426"/>
		<stop  offset="1" style="stop-color:#932426"/>
	</linearGradient>
	<path class="st11" d="M115.2,173.7h-16c-2.4,0-4.4-2-4.4-4.4s2-4.4,4.4-4.4h16c2.4,0,4.4,2,4.4,4.4S117.7,173.7,115.2,173.7z"/>
	<linearGradient id="SVGID_13_" gradientUnits="userSpaceOnUse" x1="64.7228" y1="-34.8246" x2="64.7228" y2="365.1374">
		<stop  offset="0" style="stop-color:#EB2426"/>
		<stop  offset="1" style="stop-color:#932426"/>
	</linearGradient>
	<path class="st12" d="M75.4,173.7H54.1c-2.4,0-4.4-2-4.4-4.4s2-4.4,4.4-4.4h21.3c2.4,0,4.4,2,4.4,4.4S77.8,173.7,75.4,173.7z"/>
	<linearGradient id="SVGID_14_" gradientUnits="userSpaceOnUse" x1="64.5751" y1="-34.8246" x2="64.5751" y2="365.1374">
		<stop  offset="0" style="stop-color:#EB2426"/>
		<stop  offset="1" style="stop-color:#932426"/>
	</linearGradient>
	<path class="st13" d="M80.4,274.6H48.8c-12.9,0-23.3-10.5-23.3-23.3s10.5-23.3,23.3-23.3h31.6c12.9,0,23.3,10.5,23.3,23.3
		S93.3,274.6,80.4,274.6z M48.8,236.8c-8,0-14.5,6.5-14.5,14.5s6.5,14.5,14.5,14.5h31.6c8,0,14.5-6.5,14.5-14.5s-6.5-14.5-14.5-14.5
		H48.8z"/>
	<linearGradient id="SVGID_15_" gradientUnits="userSpaceOnUse" x1="126.1791" y1="-34.8246" x2="126.1791" y2="365.1374">
		<stop  offset="0" style="stop-color:#EB2426"/>
		<stop  offset="1" style="stop-color:#932426"/>
	</linearGradient>
	<path class="st14" d="M138,255.7H99.3c-2.4,0-4.4-2-4.4-4.4s2-4.4,4.4-4.4h35.2l15.6-14.8c1.8-1.7,4.6-1.6,6.3,0.2
		c1.7,1.8,1.6,4.6-0.2,6.3L138,255.7z"/>
	<linearGradient id="SVGID_16_" gradientUnits="userSpaceOnUse" x1="64.7228" y1="-34.8246" x2="64.7228" y2="365.1374">
		<stop  offset="0" style="stop-color:#EB2426"/>
		<stop  offset="1" style="stop-color:#932426"/>
	</linearGradient>
	<path class="st15" d="M75.4,255.7H54.1c-2.4,0-4.4-2-4.4-4.4s2-4.4,4.4-4.4h21.3c2.4,0,4.4,2,4.4,4.4S77.8,255.7,75.4,255.7z"/>
</g>
</svg>
