<?xml version="1.0" encoding="utf-8"?>
<!-- Generator: Adobe Illustrator 21.1.0, SVG Export Plug-In . SVG Version: 6.00 Build 0)  -->
<svg version="1.1" id="Layer_1" xmlns="http://www.w3.org/2000/svg" xmlns:xlink="http://www.w3.org/1999/xlink" x="0px" y="0px"
	 viewBox="0 0 300 300" style="enable-background:new 0 0 300 300;" xml:space="preserve">
<style type="text/css">
	.st0{fill:url(#SVGID_1_);}
	.st1{fill:url(#SVGID_2_);}
	.st2{fill:url(#SVGID_3_);}
	.st3{fill:url(#SVGID_4_);}
	.st4{fill:url(#SVGID_5_);}
	.st5{fill:url(#SVGID_6_);}
	.st6{fill:url(#SVGID_7_);}
	.st7{fill:url(#SVGID_8_);}
	.st8{fill:url(#SVGID_9_);}
	.st9{fill:url(#SVGID_10_);}
	.st10{fill:url(#SVGID_11_);}
	.st11{fill:url(#SVGID_12_);}
	.st12{fill:url(#SVGID_13_);}
	.st13{fill:url(#SVGID_14_);}
	.st14{fill:url(#SVGID_15_);}
</style>
<g>
	<linearGradient id="SVGID_1_" gradientUnits="userSpaceOnUse" x1="42.1158" y1="33.6016" x2="42.1158" y2="259.4286">
		<stop  offset="0" style="stop-color:#EB2426"/>
		<stop  offset="1" style="stop-color:#932426"/>
	</linearGradient>
	<path class="st0" d="M57.7,285.4H26.5c-2.5,0-4.5-2-4.5-4.5V135.8c0-2.5,2-4.5,4.5-4.5s4.5,2,4.5,4.5v140.7h26.8
		c2.5,0,4.5,2,4.5,4.5S60.2,285.4,57.7,285.4z"/>
	<linearGradient id="SVGID_2_" gradientUnits="userSpaceOnUse" x1="172.8578" y1="33.6016" x2="172.8578" y2="259.4286">
		<stop  offset="0" style="stop-color:#EB2426"/>
		<stop  offset="1" style="stop-color:#932426"/>
	</linearGradient>
	<path class="st1" d="M275.7,285.4H70c-2.5,0-4.5-2-4.5-4.5s2-4.5,4.5-4.5h201.3V137.3c0-2.5,2-4.5,4.5-4.5s4.5,2,4.5,4.5v143.6
		C280.2,283.4,278.2,285.4,275.7,285.4z"/>
	<linearGradient id="SVGID_3_" gradientUnits="userSpaceOnUse" x1="263.6255" y1="33.6016" x2="263.6255" y2="259.4286">
		<stop  offset="0" style="stop-color:#EB2426"/>
		<stop  offset="1" style="stop-color:#932426"/>
	</linearGradient>
	<path class="st2" d="M274.1,140.2h-5.3c-17.4,0-33.7-14.9-36.4-33.2l-5.1-35.1c-0.2-1.3,0.2-2.6,1-3.6c0.8-1,2.1-1.5,3.4-1.5h54.5
		c2.1,0,3.8,1.4,4.3,3.4l8.5,35.1c2.3,9.5,0.6,18.8-4.7,25.5C289.5,136.9,282.4,140.2,274.1,140.2z M236.8,75.7l4.4,30
		c2,13.9,14.6,25.6,27.6,25.6h5.3c5.5,0,10.2-2.1,13.2-6c3.6-4.5,4.7-11.1,3-17.9l-7.7-31.7H236.8z"/>
	<linearGradient id="SVGID_4_" gradientUnits="userSpaceOnUse" x1="207.1768" y1="33.6016" x2="207.1768" y2="259.4286">
		<stop  offset="0" style="stop-color:#EB2426"/>
		<stop  offset="1" style="stop-color:#932426"/>
	</linearGradient>
	<path class="st3" d="M213.4,140.2h-5.3c-17.6,0-32.7-15.1-33.6-33.7l-1.7-35.1c-0.1-1.2,0.4-2.4,1.2-3.3c0.8-0.9,2-1.4,3.2-1.4
		h54.5c2.2,0,4.1,1.6,4.4,3.8l5.1,35.1c1.4,9.3-1.1,18.5-6.8,25.1C229.1,136.9,221.7,140.2,213.4,140.2z M181.9,75.7l1.5,30.4
		c0.7,13.7,12,25.2,24.7,25.2h5.3c5.6,0,10.7-2.3,14.3-6.4c4-4.6,5.7-11.2,4.8-18l-4.5-31.3H181.9z"/>
	<linearGradient id="SVGID_5_" gradientUnits="userSpaceOnUse" x1="150.0001" y1="33.6016" x2="150.0001" y2="259.4286">
		<stop  offset="0" style="stop-color:#EB2426"/>
		<stop  offset="1" style="stop-color:#932426"/>
	</linearGradient>
	<path class="st4" d="M152.7,140.2h-5.3c-8.2,0-15.9-3.3-21.7-9.4c-6.2-6.5-9.5-15.5-9-24.7l1.7-35.1c0.1-2.4,2.1-4.2,4.4-4.2h54.5
		c2.4,0,4.3,1.9,4.4,4.2l1.7,35.1c0.4,9.2-2.8,18.2-9,24.7C168.6,136.9,160.9,140.2,152.7,140.2z M127,75.7l-1.5,30.8
		c-0.3,6.8,2.1,13.4,6.6,18.1c4.1,4.3,9.5,6.6,15.3,6.6h5.3c5.8,0,11.2-2.4,15.3-6.6c4.5-4.7,6.9-11.3,6.6-18.1L173,75.7H127z"/>
	<linearGradient id="SVGID_6_" gradientUnits="userSpaceOnUse" x1="92.823" y1="33.6016" x2="92.823" y2="259.4286">
		<stop  offset="0" style="stop-color:#EB2426"/>
		<stop  offset="1" style="stop-color:#932426"/>
	</linearGradient>
	<path class="st5" d="M91.9,140.2h-5.3c-8.3,0-15.7-3.4-21-9.5c-5.7-6.6-8.2-15.7-6.8-25.1l5.1-35.1c0.3-2.2,2.2-3.8,4.4-3.8h54.5
		c1.2,0,2.4,0.5,3.2,1.4c0.8,0.9,1.3,2.1,1.2,3.3l-1.7,35.1C124.6,125.1,109.6,140.2,91.9,140.2z M72.1,75.7L67.6,107
		c-1,6.8,0.7,13.3,4.8,18c3.6,4.1,8.6,6.4,14.3,6.4h5.3c12.7,0,24-11.5,24.7-25.2l1.5-30.4H72.1z"/>
	<linearGradient id="SVGID_7_" gradientUnits="userSpaceOnUse" x1="36.3745" y1="33.6016" x2="36.3745" y2="259.4286">
		<stop  offset="0" style="stop-color:#EB2426"/>
		<stop  offset="1" style="stop-color:#932426"/>
	</linearGradient>
	<path class="st6" d="M31.2,140.2h-5.3c-8.2,0-15.4-3.3-20.2-9.4c-5.3-6.7-7-16-4.7-25.5l8.5-35.1c0.5-2,2.3-3.4,4.3-3.4h54.5
		c1.3,0,2.5,0.6,3.4,1.5c0.8,1,1.2,2.3,1,3.6L67.6,107C64.9,125.3,48.6,140.2,31.2,140.2z M17.3,75.7l-7.7,31.7
		c-1.7,6.8-0.6,13.3,3,17.9c3.1,3.9,7.8,6,13.2,6h5.3c12.9,0,25.5-11.7,27.6-25.6l4.4-30H17.3z"/>
	<linearGradient id="SVGID_8_" gradientUnits="userSpaceOnUse" x1="61.3081" y1="33.6016" x2="61.3081" y2="259.4286">
		<stop  offset="0" style="stop-color:#EB2426"/>
		<stop  offset="1" style="stop-color:#932426"/>
	</linearGradient>
	<path class="st7" d="M68.9,75.7H14.2c-1.9,0-3.5-1.2-4.2-2.9c-0.6-1.8-0.1-3.7,1.3-4.9l61.9-52.2c0.8-0.7,1.8-1,2.9-1h32.3
		c1.7,0,3.2,1,4,2.5s0.6,3.3-0.4,4.7L72.4,74C71.6,75.1,70.2,75.7,68.9,75.7z M26.4,66.8h40.2l32.8-43.3H77.7L26.4,66.8z"/>
	<linearGradient id="SVGID_9_" gradientUnits="userSpaceOnUse" x1="104.6912" y1="33.6016" x2="104.6912" y2="259.4286">
		<stop  offset="0" style="stop-color:#EB2426"/>
		<stop  offset="1" style="stop-color:#932426"/>
	</linearGradient>
	<path class="st8" d="M123.4,75.7H68.8c-1.7,0-3.2-1-4-2.5c-0.8-1.5-0.6-3.3,0.4-4.7l39.6-52.2c0.8-1.1,2.2-1.8,3.5-1.8h32.3
		c1.4,0,2.8,0.7,3.6,1.8s1.1,2.6,0.6,4l-17.2,52.2C127,74.5,125.3,75.7,123.4,75.7z M77.7,66.8h42.5l14.3-43.3h-23.9L77.7,66.8z"/>
	<linearGradient id="SVGID_10_" gradientUnits="userSpaceOnUse" x1="150.5485" y1="33.6016" x2="150.5485" y2="259.4286">
		<stop  offset="0" style="stop-color:#EB2426"/>
		<stop  offset="1" style="stop-color:#932426"/>
	</linearGradient>
	<path class="st9" d="M177.9,75.7h-54.6c-1.4,0-2.8-0.7-3.6-1.8s-1.1-2.6-0.6-4l17.3-52.2c0.6-1.8,2.3-3.1,4.2-3.1h32.3
		c2.3,0,4.2,1.7,4.4,4l5.1,52.2c0.1,1.2-0.3,2.5-1.1,3.4C180.3,75.2,179.1,75.7,177.9,75.7z M129.4,66.8H173l-4.2-43.3h-25
		L129.4,66.8z"/>
	<linearGradient id="SVGID_11_" gradientUnits="userSpaceOnUse" x1="202.6362" y1="33.6016" x2="202.6362" y2="259.4286">
		<stop  offset="0" style="stop-color:#EB2426"/>
		<stop  offset="1" style="stop-color:#932426"/>
	</linearGradient>
	<path class="st10" d="M232.5,75.7h-54.6c-2.3,0-4.2-1.7-4.4-4l-5.1-52.2c-0.1-1.2,0.3-2.5,1.1-3.4c0.8-0.9,2-1.5,3.3-1.5h32.3
		c1.7,0,3.2,0.9,3.9,2.4l27.4,52.2c0.7,1.4,0.7,3-0.1,4.4C235.5,74.9,234,75.7,232.5,75.7z M181.9,66.8h43.2l-22.8-43.3h-24.7
		L181.9,66.8z"/>
	<linearGradient id="SVGID_12_" gradientUnits="userSpaceOnUse" x1="245.8209" y1="33.6016" x2="245.8209" y2="259.4286">
		<stop  offset="0" style="stop-color:#EB2426"/>
		<stop  offset="1" style="stop-color:#932426"/>
	</linearGradient>
	<path class="st11" d="M286.8,75.7h-54.6c-1.7,0-3.2-0.9-3.9-2.4l-27.3-52.2c-0.7-1.4-0.7-3,0.1-4.4c0.8-1.3,2.2-2.1,3.8-2.1h32.3
		c1.2,0,2.4,0.5,3.2,1.4L290,68.2c1.2,1.3,1.6,3.2,0.9,4.8C290.2,74.7,288.6,75.7,286.8,75.7z M234.9,66.8h41.6l-41.2-43.3h-23
		L234.9,66.8z"/>
	<linearGradient id="SVGID_13_" gradientUnits="userSpaceOnUse" x1="106.6815" y1="33.6016" x2="106.6815" y2="259.4286">
		<stop  offset="0" style="stop-color:#EB2426"/>
		<stop  offset="1" style="stop-color:#932426"/>
	</linearGradient>
	<path class="st12" d="M153.9,230.8H59.4c-2.4,0-4.3-2-4.3-4.5v-57.2c0-2.5,1.9-4.5,4.3-4.5h94.5c2.4,0,4.3,2,4.3,4.5v57.2
		C158.2,228.8,156.3,230.8,153.9,230.8z M63.7,221.9h86v-48.3h-86V221.9z"/>
	<linearGradient id="SVGID_14_" gradientUnits="userSpaceOnUse" x1="215.585" y1="33.6016" x2="215.585" y2="259.4286">
		<stop  offset="0" style="stop-color:#EB2426"/>
		<stop  offset="1" style="stop-color:#932426"/>
	</linearGradient>
	<path class="st13" d="M249.6,285.4h-68c-2.5,0-4.5-2-4.5-4.5V165.8c0-2.5,2-4.5,4.5-4.5h68c2.5,0,4.5,2,4.5,4.5v115.1
		C254.1,283.4,252.1,285.4,249.6,285.4z M186,276.5h59.1V170.3H186V276.5z"/>
	<linearGradient id="SVGID_15_" gradientUnits="userSpaceOnUse" x1="215.585" y1="33.6016" x2="215.585" y2="259.4286">
		<stop  offset="0" style="stop-color:#EB2426"/>
		<stop  offset="1" style="stop-color:#932426"/>
	</linearGradient>
	<path class="st14" d="M249.6,196.2h-68c-2.5,0-4.5-2-4.5-4.5s2-4.5,4.5-4.5h68c2.5,0,4.5,2,4.5,4.5S252.1,196.2,249.6,196.2z"/>
</g>
</svg>
